
<svg width="299" height="516" fill="none" fill-rule="evenodd" xmlns="http://www.w3.org/2000/svg" xmlns:svg="http://www.w3.org/2000/svg">
    <path id="svg_1" fill="#a5adb0" d="m40,0l219,0c22.09,0 40,14.734264 40,32.907345l0,449.185262c0,18.173081 -17.91,32.907345 -40,32.907345l-219,0c-22.09,0 -40,-14.734264 -40,-32.907345l0,-449.185262c0,-18.173081 17.91,-32.907345 40,-32.907345zm4,8.226836c-18.778,0 -34,12.52289 -34,27.971243l0,442.603793c0,15.448353 15.222,27.971243 34,27.971243l212,0c18.778,0 34,-12.52289 34,-27.971243l0,-442.603793c0,-15.448353 -15.222,-27.971243 -34,-27.971243l-212,0z"/>
    <path stroke="#eaeaea" id="svg_2" d="m44,10.5c-18.502,0 -33.5,12.22151 -33.5,27.298346l0,438.403294c0,15.076836 14.998,27.298346 33.5,27.298346l212,0c18.502,0 33.5,-12.22151 33.5,-27.298346l0,-438.403294c0,-15.076836 -14.998,-27.298346 -33.5,-27.298346l-212,0z"/>
</svg>
